<?xml version="1.0" encoding="UTF-8" standalone="no"?>
<!DOCTYPE svg PUBLIC "-//W3C//DTD SVG 1.1//EN"
 "http://www.w3.org/Graphics/SVG/1.1/DTD/svg11.dtd">
<!-- Generated by graphviz version 2.40.1 (20161225.0304)
 -->
<!-- Title: g Pages: 1 -->
<svg width="786pt" height="1235pt"
 viewBox="0.00 0.00 785.95 1235.40" xmlns="http://www.w3.org/2000/svg" xmlns:xlink="http://www.w3.org/1999/xlink">
<g id="graph0" class="graph" transform="scale(1 1) rotate(0) translate(4 1231.3956)">
<title>g</title>
<polygon fill="#ffffff" stroke="transparent" points="-4,4 -4,-1231.3956 781.9464,-1231.3956 781.9464,4 -4,4"/>
<!-- Idle -->
<g id="node1" class="node">
<title>Idle</title>
<ellipse fill="none" stroke="#000000" cx="553" cy="-1198.6978" rx="24.8692" ry="24.8692"/>
<ellipse fill="none" stroke="#000000" cx="553" cy="-1198.6978" rx="28.897" ry="28.897"/>
<text text-anchor="middle" x="553" y="-1194.9978" font-family="Times,serif" font-size="14.00" fill="#000000">Idle</text>
</g>
<!-- Ready_First -->
<g id="node3" class="node">
<title>Ready_First</title>
<ellipse fill="none" stroke="#000000" cx="453" cy="-1047" rx="72" ry="72"/>
<text text-anchor="middle" x="453" y="-1043.3" font-family="Times,serif" font-size="14.00" fill="#000000">Ready_First</text>
</g>
<!-- Idle&#45;&gt;Ready_First -->
<g id="edge1" class="edge">
<title>Idle&#45;&gt;Ready_First</title>
<path fill="none" stroke="#000000" d="M537.1547,-1174.6608C526.6044,-1158.6562 512.1677,-1136.7562 498.23,-1115.6129"/>
<polygon fill="#000000" stroke="#000000" points="501.1423,-1113.6715 492.7162,-1107.2486 495.2979,-1117.5242 501.1423,-1113.6715"/>
<text text-anchor="middle" x="545.5" y="-1140.8" font-family="Times,serif" font-size="14.00" fill="#000000">reserve()</text>
</g>
<!-- Finished -->
<g id="node2" class="node">
<title>Finished</title>
<ellipse fill="none" stroke="#000000" cx="605" cy="-267" rx="40.8976" ry="40.8976"/>
<ellipse fill="none" stroke="#000000" cx="605" cy="-267" rx="44.8928" ry="44.8928"/>
<text text-anchor="middle" x="605" y="-263.3" font-family="Times,serif" font-size="14.00" fill="#000000">Finished</text>
</g>
<!-- Finished&#45;&gt;Idle -->
<g id="edge28" class="edge">
<title>Finished&#45;&gt;Idle</title>
<path fill="none" stroke="#000000" d="M616.7275,-310.7864C626.2126,-350.0744 638,-409.4667 638,-462 638,-1047 638,-1047 638,-1047 638,-1095.0146 605.1913,-1141.9216 580.3404,-1170.5643"/>
<polygon fill="#000000" stroke="#000000" points="577.6229,-1168.3528 573.5761,-1178.1444 582.8457,-1173.0136 577.6229,-1168.3528"/>
<text text-anchor="middle" x="661.5" y="-750.8" font-family="Times,serif" font-size="14.00" fill="#000000">release()</text>
</g>
<!-- Finished&#45;&gt;Finished -->
<g id="edge26" class="edge">
<title>Finished&#45;&gt;Finished</title>
<path fill="none" stroke="#ff0000" d="M649.1209,-275.8594C659.9141,-275.2031 667.9464,-272.25 667.9464,-267 667.9464,-263.5547 664.4872,-261.0986 659.0586,-259.6316"/>
<polygon fill="#ff0000" stroke="#ff0000" points="659.5295,-256.1632 649.1209,-258.1406 658.4908,-263.0857 659.5295,-256.1632"/>
<text text-anchor="middle" x="692.4464" y="-263.3" font-family="Times,serif" font-size="14.00" fill="#000000">Update()</text>
</g>
<!-- Finished&#45;&gt;Finished -->
<g id="edge27" class="edge">
<title>Finished&#45;&gt;Finished</title>
<path fill="none" stroke="#ff0000" d="M646.9882,-283.1532C679.9184,-288.2281 716.9464,-282.8438 716.9464,-267 716.9464,-252.7654 687.0578,-246.9734 657.1054,-249.6242"/>
<polygon fill="#ff0000" stroke="#ff0000" points="656.4961,-246.1723 646.9882,-250.8468 657.3359,-253.1217 656.4961,-246.1723"/>
<text text-anchor="middle" x="738.4464" y="-263.3" font-family="Times,serif" font-size="14.00" fill="#000000">Finish()</text>
</g>
<!-- Queued_First -->
<g id="node5" class="node">
<title>Queued_First</title>
<ellipse fill="none" stroke="#00ff00" cx="278" cy="-852" rx="72" ry="72"/>
<text text-anchor="middle" x="278" y="-848.3" font-family="Times,serif" font-size="14.00" fill="#000000">Queued_First</text>
</g>
<!-- Ready_First&#45;&gt;Queued_First -->
<g id="edge2" class="edge">
<title>Ready_First&#45;&gt;Queued_First</title>
<path fill="none" stroke="#000000" d="M404.7172,-993.1992C382.4338,-968.3691 355.8718,-938.7714 332.8363,-913.1033"/>
<polygon fill="#000000" stroke="#000000" points="335.4092,-910.73 326.1252,-905.6252 330.1995,-915.4054 335.4092,-910.73"/>
<text text-anchor="middle" x="395.5" y="-945.8" font-family="Times,serif" font-size="14.00" fill="#000000">Update()</text>
</g>
<!-- Queued_Whole -->
<g id="node8" class="node">
<title>Queued_Whole</title>
<ellipse fill="none" stroke="#00ff00" cx="410" cy="-657" rx="72" ry="72"/>
<text text-anchor="middle" x="410" y="-653.3" font-family="Times,serif" font-size="14.00" fill="#000000">Queued_Whole</text>
</g>
<!-- Ready_First&#45;&gt;Queued_Whole -->
<g id="edge3" class="edge">
<title>Ready_First&#45;&gt;Queued_Whole</title>
<path fill="none" stroke="#000000" d="M446.3064,-975.2627C441.1514,-921.4751 433.6361,-846.0682 426,-780 424.4482,-766.5734 422.6955,-752.3368 420.9337,-738.4945"/>
<polygon fill="#000000" stroke="#000000" points="424.3959,-737.9754 419.652,-728.502 417.4528,-738.8661 424.3959,-737.9754"/>
<text text-anchor="middle" x="463.5" y="-848.3" font-family="Times,serif" font-size="14.00" fill="#000000">Finish()</text>
</g>
<!-- Ready_Update -->
<g id="node4" class="node">
<title>Ready_Update</title>
<ellipse fill="none" stroke="#000000" cx="72" cy="-462" rx="72" ry="72"/>
<text text-anchor="middle" x="72" y="-458.3" font-family="Times,serif" font-size="14.00" fill="#000000">Ready_Update</text>
</g>
<!-- Queued_Update -->
<g id="node6" class="node">
<title>Queued_Update</title>
<ellipse fill="none" stroke="#00ff00" cx="193" cy="-267" rx="72" ry="72"/>
<text text-anchor="middle" x="193" y="-263.3" font-family="Times,serif" font-size="14.00" fill="#000000">Queued_Update</text>
</g>
<!-- Ready_Update&#45;&gt;Queued_Update -->
<g id="edge4" class="edge">
<title>Ready_Update&#45;&gt;Queued_Update</title>
<path fill="none" stroke="#000000" d="M97.4477,-394.4117C103.2288,-381.6397 109.8114,-368.6444 117,-357 122.9825,-347.3094 129.9585,-337.576 137.2126,-328.2771"/>
<polygon fill="#000000" stroke="#000000" points="140.1347,-330.2269 143.6412,-320.2291 134.6653,-325.8581 140.1347,-330.2269"/>
<text text-anchor="middle" x="141.5" y="-360.8" font-family="Times,serif" font-size="14.00" fill="#000000">Update()</text>
</g>
<!-- Queued_Last -->
<g id="node7" class="node">
<title>Queued_Last</title>
<ellipse fill="none" stroke="#00ff00" cx="324" cy="-72" rx="72" ry="72"/>
<text text-anchor="middle" x="324" y="-68.3" font-family="Times,serif" font-size="14.00" fill="#000000">Queued_Last</text>
</g>
<!-- Ready_Update&#45;&gt;Queued_Last -->
<g id="edge5" class="edge">
<title>Ready_Update&#45;&gt;Queued_Last</title>
<path fill="none" stroke="#000000" d="M51.8642,-392.8683C39.4087,-335.4348 32.0234,-253.8892 69,-195 106.943,-134.5717 183.8521,-103.1247 243.3336,-87.222"/>
<polygon fill="#000000" stroke="#000000" points="244.2846,-90.5914 253.0959,-84.7083 242.539,-83.8125 244.2846,-90.5914"/>
<text text-anchor="middle" x="90.5" y="-263.3" font-family="Times,serif" font-size="14.00" fill="#000000">Finish()</text>
</g>
<!-- Queued_First&#45;&gt;Queued_First -->
<g id="edge6" class="edge">
<title>Queued_First&#45;&gt;Queued_First</title>
<path fill="none" stroke="#000000" d="M348.1868,-868.73C359.9104,-866.3892 368,-860.8125 368,-852 368,-845.9414 364.1764,-841.4123 357.9771,-838.4125"/>
<polygon fill="#000000" stroke="#000000" points="358.778,-834.9938 348.1868,-835.27 356.6386,-841.6589 358.778,-834.9938"/>
<text text-anchor="middle" x="392.5" y="-848.3" font-family="Times,serif" font-size="14.00" fill="#000000">Update()</text>
</g>
<!-- Queued_First&#45;&gt;Queued_Whole -->
<g id="edge7" class="edge">
<title>Queued_First&#45;&gt;Queued_Whole</title>
<path fill="none" stroke="#000000" d="M318.5014,-792.1684C332.8189,-771.0176 349.0281,-747.0721 363.7837,-725.274"/>
<polygon fill="#000000" stroke="#000000" points="366.8679,-726.9616 369.5752,-716.7185 361.0711,-723.0376 366.8679,-726.9616"/>
<text text-anchor="middle" x="369.5" y="-750.8" font-family="Times,serif" font-size="14.00" fill="#000000">Finish()</text>
</g>
<!-- Computing_Update -->
<g id="node9" class="node">
<title>Computing_Update</title>
<ellipse fill="none" stroke="#0000ff" cx="181" cy="-657" rx="72" ry="72"/>
<text text-anchor="middle" x="181" y="-653.3" font-family="Times,serif" font-size="14.00" fill="#000000">Computing_Update</text>
</g>
<!-- Queued_First&#45;&gt;Computing_Update -->
<g id="edge8" class="edge">
<title>Queued_First&#45;&gt;Computing_Update</title>
<path fill="none" stroke="#000000" d="M245.8351,-787.3387C236.7831,-769.1413 226.8715,-749.2159 217.5818,-730.5407"/>
<polygon fill="#000000" stroke="#000000" points="220.6653,-728.881 213.0778,-721.4864 214.3979,-731.9986 220.6653,-728.881"/>
<text text-anchor="middle" x="259" y="-750.8" font-family="Times,serif" font-size="14.00" fill="#000000">bg_step()</text>
</g>
<!-- Queued_Update&#45;&gt;Queued_Update -->
<g id="edge9" class="edge">
<title>Queued_Update&#45;&gt;Queued_Update</title>
<path fill="none" stroke="#000000" d="M263.1868,-283.73C274.9104,-281.3892 283,-275.8125 283,-267 283,-260.9414 279.1764,-256.4123 272.9771,-253.4125"/>
<polygon fill="#000000" stroke="#000000" points="273.778,-249.9938 263.1868,-250.27 271.6386,-256.6589 273.778,-249.9938"/>
<text text-anchor="middle" x="307.5" y="-263.3" font-family="Times,serif" font-size="14.00" fill="#000000">Update()</text>
</g>
<!-- Queued_Update&#45;&gt;Queued_Last -->
<g id="edge10" class="edge">
<title>Queued_Update&#45;&gt;Queued_Last</title>
<path fill="none" stroke="#000000" d="M233.1946,-207.1684C247.3372,-186.1164 263.3397,-162.2958 277.9285,-140.5798"/>
<polygon fill="#000000" stroke="#000000" points="280.9845,-142.307 283.6557,-132.0544 275.174,-138.4035 280.9845,-142.307"/>
<text text-anchor="middle" x="284.5" y="-165.8" font-family="Times,serif" font-size="14.00" fill="#000000">Finish()</text>
</g>
<!-- Queued_Update&#45;&gt;Computing_Update -->
<g id="edge11" class="edge">
<title>Queued_Update&#45;&gt;Computing_Update</title>
<path fill="none" stroke="#000000" d="M220.8424,-333.5914C227.0969,-351.5833 232.8197,-371.266 236,-390 246.7114,-453.0973 249.3566,-471.4093 236,-534 232.4088,-550.8287 226.3401,-568.1422 219.5141,-584.2723"/>
<polygon fill="#000000" stroke="#000000" points="216.226,-583.0559 215.4206,-593.6201 222.6381,-585.8638 216.226,-583.0559"/>
<text text-anchor="middle" x="272" y="-458.3" font-family="Times,serif" font-size="14.00" fill="#000000">bg_step()</text>
</g>
<!-- Queued_Last&#45;&gt;Queued_Last -->
<g id="edge12" class="edge">
<title>Queued_Last&#45;&gt;Queued_Last</title>
<path fill="none" stroke="#ff0000" d="M395.6633,-80.2068C406.5842,-78.9543 414,-76.2188 414,-72 414,-69.2314 410.8063,-67.1016 405.5241,-65.6106"/>
<polygon fill="#ff0000" stroke="#ff0000" points="406.1321,-62.1637 395.6633,-63.7932 404.8633,-69.0478 406.1321,-62.1637"/>
<text text-anchor="middle" x="438.5" y="-68.3" font-family="Times,serif" font-size="14.00" fill="#000000">Update()</text>
</g>
<!-- Queued_Last&#45;&gt;Queued_Last -->
<g id="edge13" class="edge">
<title>Queued_Last&#45;&gt;Queued_Last</title>
<path fill="none" stroke="#ff0000" d="M394.0304,-89.644C429.4986,-91.5688 463,-85.6875 463,-72 463,-59.6492 435.7223,-53.6543 404.3358,-54.0154"/>
<polygon fill="#ff0000" stroke="#ff0000" points="403.9093,-50.5275 394.0304,-54.356 404.1406,-57.5237 403.9093,-50.5275"/>
<text text-anchor="middle" x="484.5" y="-68.3" font-family="Times,serif" font-size="14.00" fill="#000000">Finish()</text>
</g>
<!-- Computing_Last -->
<g id="node10" class="node">
<title>Computing_Last</title>
<ellipse fill="none" stroke="#0000ff" cx="410" cy="-462" rx="72" ry="72"/>
<text text-anchor="middle" x="410" y="-458.3" font-family="Times,serif" font-size="14.00" fill="#000000">Computing_Last</text>
</g>
<!-- Queued_Last&#45;&gt;Computing_Last -->
<g id="edge14" class="edge">
<title>Queued_Last&#45;&gt;Computing_Last</title>
<path fill="none" stroke="#000000" d="M376.9711,-121.1808C395.5897,-141.9412 414.2814,-167.6401 424,-195 445.3916,-255.2219 439.7243,-327.8958 429.9161,-382.209"/>
<polygon fill="#000000" stroke="#000000" points="426.4592,-381.6537 428.0421,-392.1296 433.3375,-382.9531 426.4592,-381.6537"/>
<text text-anchor="middle" x="465" y="-263.3" font-family="Times,serif" font-size="14.00" fill="#000000">bg_step()</text>
</g>
<!-- Queued_Whole&#45;&gt;Queued_Whole -->
<g id="edge15" class="edge">
<title>Queued_Whole&#45;&gt;Queued_Whole</title>
<path fill="none" stroke="#ff0000" d="M481.6633,-665.2068C492.5842,-663.9543 500,-661.2188 500,-657 500,-654.2314 496.8063,-652.1016 491.5241,-650.6106"/>
<polygon fill="#ff0000" stroke="#ff0000" points="492.1321,-647.1637 481.6633,-648.7932 490.8633,-654.0478 492.1321,-647.1637"/>
<text text-anchor="middle" x="524.5" y="-653.3" font-family="Times,serif" font-size="14.00" fill="#000000">Update()</text>
</g>
<!-- Queued_Whole&#45;&gt;Queued_Whole -->
<g id="edge16" class="edge">
<title>Queued_Whole&#45;&gt;Queued_Whole</title>
<path fill="none" stroke="#ff0000" d="M480.0304,-674.644C515.4986,-676.5688 549,-670.6875 549,-657 549,-644.6492 521.7223,-638.6543 490.3358,-639.0154"/>
<polygon fill="#ff0000" stroke="#ff0000" points="489.9093,-635.5275 480.0304,-639.356 490.1406,-642.5237 489.9093,-635.5275"/>
<text text-anchor="middle" x="570.5" y="-653.3" font-family="Times,serif" font-size="14.00" fill="#000000">Finish()</text>
</g>
<!-- Queued_Whole&#45;&gt;Computing_Last -->
<g id="edge17" class="edge">
<title>Queued_Whole&#45;&gt;Computing_Last</title>
<path fill="none" stroke="#000000" d="M410,-584.9432C410,-571.7156 410,-557.8162 410,-544.315"/>
<polygon fill="#000000" stroke="#000000" points="413.5001,-544.0859 410,-534.086 406.5001,-544.086 413.5001,-544.0859"/>
<text text-anchor="middle" x="436" y="-555.8" font-family="Times,serif" font-size="14.00" fill="#000000">bg_step()</text>
</g>
<!-- Computing_Update&#45;&gt;Ready_Update -->
<!-- empty queue -->
<g id="edge20" class="edge">
<title>Computing_Update&#45;&gt;Ready_Update</title>
<path fill="none" stroke="#000000" d="M135.7879,-600.8901C128.0006,-589.9811 120.3738,-578.3889 114,-567 109.059,-558.1712 104.4054,-548.6423 100.1236,-539.0528"/>
<polygon fill="#000000" stroke="#000000" points="103.3266,-537.6415 96.1352,-529.8611 96.9051,-540.4279 103.3266,-537.6415"/>
<text text-anchor="middle" x="140" y="-555.8" font-family="Times,serif" font-size="14.00" fill="#000000">bg_step()</text>
</g>
<!-- Computing_Update&#45;&gt;Queued_Update -->
<!-- filled queue -->
<g id="edge21" class="edge">
<title>Computing_Update&#45;&gt;Queued_Update</title>
<path fill="none" stroke="#000000" d="M178.5347,-584.9865C177.2274,-531.2208 176.5238,-455.9636 180,-390 180.6979,-376.7571 181.8156,-362.7453 183.11,-349.1064"/>
<polygon fill="#000000" stroke="#000000" points="186.6312,-349.0637 184.1303,-338.7683 179.665,-348.3762 186.6312,-349.0637"/>
<text text-anchor="middle" x="206" y="-458.3" font-family="Times,serif" font-size="14.00" fill="#000000">bg_step()</text>
</g>
<!-- Computing_Update&#45;&gt;Computing_Update -->
<g id="edge18" class="edge">
<title>Computing_Update&#45;&gt;Computing_Update</title>
<path fill="none" stroke="#000000" d="M251.1868,-673.73C262.9104,-671.3892 271,-665.8125 271,-657 271,-650.9414 267.1764,-646.4123 260.9771,-643.4125"/>
<polygon fill="#000000" stroke="#000000" points="261.778,-639.9938 251.1868,-640.27 259.6386,-646.6589 261.778,-639.9938"/>
<text text-anchor="middle" x="295.5" y="-653.3" font-family="Times,serif" font-size="14.00" fill="#000000">Update()</text>
</g>
<!-- Computing_Update&#45;&gt;Computing_Last -->
<g id="edge19" class="edge">
<title>Computing_Update&#45;&gt;Computing_Last</title>
<path fill="none" stroke="#000000" d="M235.8512,-610.2926C269.3115,-581.8002 312.2007,-545.2788 347.043,-515.6097"/>
<polygon fill="#000000" stroke="#000000" points="349.4582,-518.1501 354.8027,-509.0021 344.9199,-512.8206 349.4582,-518.1501"/>
<text text-anchor="middle" x="324.5" y="-555.8" font-family="Times,serif" font-size="14.00" fill="#000000">Finish()</text>
</g>
<!-- Computing_Last&#45;&gt;Finished -->
<g id="edge25" class="edge">
<title>Computing_Last&#45;&gt;Finished</title>
<path fill="none" stroke="#000000" d="M460.9792,-411.0208C493.6444,-378.3556 535.4089,-336.5911 565.5426,-306.4574"/>
<polygon fill="#000000" stroke="#000000" points="568.3443,-308.6055 572.9405,-299.0595 563.3945,-303.6557 568.3443,-308.6055"/>
<text text-anchor="middle" x="540" y="-360.8" font-family="Times,serif" font-size="14.00" fill="#000000">bg_step()</text>
</g>
<!-- Computing_Last&#45;&gt;Queued_Last -->
<g id="edge24" class="edge">
<title>Computing_Last&#45;&gt;Queued_Last</title>
<path fill="none" stroke="#000000" d="M384.6354,-394.29C378.584,-376.4794 372.5644,-357.1641 368,-339 359.4008,-304.7791 345.7438,-218.7893 335.9254,-153.566"/>
<polygon fill="#000000" stroke="#000000" points="339.3284,-152.6578 334.3839,-143.2875 332.4058,-153.696 339.3284,-152.6578"/>
<text text-anchor="middle" x="394" y="-263.3" font-family="Times,serif" font-size="14.00" fill="#000000">bg_step()</text>
</g>
<!-- Computing_Last&#45;&gt;Computing_Last -->
<g id="edge22" class="edge">
<title>Computing_Last&#45;&gt;Computing_Last</title>
<path fill="none" stroke="#ff0000" d="M481.6633,-470.2068C492.5842,-468.9543 500,-466.2188 500,-462 500,-459.2314 496.8063,-457.1016 491.5241,-455.6106"/>
<polygon fill="#ff0000" stroke="#ff0000" points="492.1321,-452.1637 481.6633,-453.7932 490.8633,-459.0478 492.1321,-452.1637"/>
<text text-anchor="middle" x="524.5" y="-458.3" font-family="Times,serif" font-size="14.00" fill="#000000">Update()</text>
</g>
<!-- Computing_Last&#45;&gt;Computing_Last -->
<g id="edge23" class="edge">
<title>Computing_Last&#45;&gt;Computing_Last</title>
<path fill="none" stroke="#ff0000" d="M480.0304,-479.644C515.4986,-481.5688 549,-475.6875 549,-462 549,-449.6492 521.7223,-443.6543 490.3358,-444.0154"/>
<polygon fill="#ff0000" stroke="#ff0000" points="489.9093,-440.5275 480.0304,-444.356 490.1406,-447.5237 489.9093,-440.5275"/>
<text text-anchor="middle" x="570.5" y="-458.3" font-family="Times,serif" font-size="14.00" fill="#000000">Finish()</text>
</g>
</g>
</svg>
